<svg xmlns="http://www.w3.org/2000/svg" viewBox="0 0 1700 1250" width="1700" height="1250" font-family="Montserrat, 'Helvetica Neue', Arial, sans-serif">
  <defs>
    <radialGradient id="bg" cx="52%" cy="42%" r="78%">
      <stop offset="0%" stop-color="#0C1B2E"/><stop offset="55%" stop-color="#060E1A"/><stop offset="100%" stop-color="#03070E"/>
    </radialGradient>
    <linearGradient id="land" x1="0" y1="0" x2="0" y2="1">
      <stop offset="0%" stop-color="#152D4B"/><stop offset="100%" stop-color="#0C1C31"/>
    </linearGradient>
    <!-- glow as real geometry, not feGaussianBlur: Figma's SVG importer flattens
         feMerge down to the blurred copy alone, which smears the crisp artwork -->
    <radialGradient id="haloY">
      <stop offset="0%" stop-color="#5DA9F5" stop-opacity=".46"/>
      <stop offset="45%" stop-color="#5DA9F5" stop-opacity=".17"/>
      <stop offset="100%" stop-color="#5DA9F5" stop-opacity="0"/>
    </radialGradient>
  </defs>

  <rect width="1700" height="1250" fill="url(#bg)"/>

  <g transform="translate(300.00,62.00) scale(0.62692) translate(0.00,0.00) translate(603,162.63782)">
    <g fill="url(#land)" stroke="#26456B" stroke-width="2" stroke-linejoin="round">
      <path d="m 141,46.362183 -32,-6 -13,-4 -31,-28.0000004 -17,-7 -13,-7 -11,0 -8,6.00000002 3,10.00000038 -7,4 -4,-4 -22,8 -9,23 -11,-7 -23,11 -9,13 11,12 -3,0 -9,3 2,18 -13,-3 -16,12.999997 -3,8 2,10 5,8 -9,11 3,8 -19,-2 -12,-3 -9,3 3,8 -4,13 15,16 -3,10 -6,-6 -4,28 c 0,0 -10,-5 -13,-9 -3,-4 -19,-40 -19,-40 l 0,-5 -7,4 -20,24 -12,15 -2,16 6,17 6,14 -7,11 -20,18 -11,37 -13,17 -31,18 -10,8 -27,6 -8,7 -28,-6 -9,17 -5,4 -30,8 -7,6 -7,12 -20,7 -21,-3 -17,2 -14,9 -21,23 -19,24 -28,14 -11,10 -5,32 -9,5 -7,0 -4,-31 -8,2 -10,39 12,17 1,11 -3,27 -7,17 0,27 14,15 9,20 21,23 13,16 1,24 -15,-8 -28,-29 -3,13 17,17 10,14 -23,-3 4,9 32,35 12,21 3,17 32,38 17,25 5,27 1,16 12,26 30,43.00002 7,17 5,44 3,23 -1,13 -5,17 -7,2 -15,-6 0,11 3,24 6,10 11,-4 21,7 17,16 15,6 28,1 28,-3 29,-11 9,-8 14,-19 15,-5 11,-5 3,-16 19,-11 43,-7 27,-5 23,5 38,-7 7,0 9,2 18,-9 12,-17 5,-26 7,-5 20,-4 57,-37.00002 18,-3 38,2 21,-12 34,-18 18,-8 -34,-905.999997 z"/>
      <path d="m 150,54.362183 15,-3 15,4 1,-13 -15,-15 -1,-10 6,-11.0000004 11,-1 6,-30.9999996 9,3 11,-14 -6,-12 0,-10 9,0 3,-9 12,-7 2,-14 15,0 8,-11 21,6 22,-3 12,4 17,-10.000003 15,-4 -4,-20 -10,-9 -14,-2 -10,-11 24,-10 20,22 10,-7 12,19 24,6 13,-7 2,9 44,8 6,1 15,12.000003 8,1 8,-8.000003 14,2 3,7.000003 13,-3 6,13 9,1 7,-10 -7,-8.000003 14,-7 3,0 6,9.000003 7,2 5,2 5,8 -10,11 -7,11 -8,1 2,13 -6,9 -9,-3 -20,13 0,17 6,5.9999996 -9,16 1,5.0000004 -9,7 -12,20 -4,3 4,14 38,25 4,8 17,9 4,12.999997 19,-3 20,13 16,8 8,15 -18,505 -98,-3 -123,-2 -163,5 -44,1 z"/>
      <path d="m 193,-116.63782 20,4 16,-6 15,4 22,-13 8,-11 -1,-12 -11,-3 -27,10 -20,-6 -7,5 -9,11 1,5 z"/>
      <path d="m 536,17.362183 29,2 6,-7 -10,-8.0000004 3,-14 -20,-6.9999996 -2,6.9999996 -4,20.0000004 z"/>
      <path d="m 739,825.36218 146,12 107,10 120,13 15,-15 12,-3 10,3 21,-1 7,5 6,2 11,2 7,5 5,4 7,8 1,10 7,2 8,-4 5,-9 9,5 11,0 4,-10 -1,-9 24,-11 11,3 10,5 24,-5 -1,26 -13,24 -11,31 -13,29 0,18 -9,21 -11,24.00002 -10,12 -8,12 -5,14 -36,23 -28,33 -9,22 -11,20 -9,30 -13,13 -18,19 -10,25 -8,24 -6,36 -5,6 -66,-43 1,-15 -4,-10 0,-17 -18,-8 -21,3 -19,-4 -23,-1 -27,-9 -17,-7 -15,3 -1,6 1,6 -3,1 -7,-4 -11,-18 -12,-13 -16,-9 -5,-9 -7,-8 4,-17 -10,-4.5 -18.5,-6 -8.5,6.5 -7,-16 -1,-9 -19,-13 -9,-3 -9,5 -21,-8 z"/>
      <path d="m 1057,1200.3622 9,-14 12,0 4,11 -9,11 -5,20 -9,-10 -3,-10 z"/>
      <path d="m 721,1096.3622 -12,215 24,17 12,-8 17,7 26,14 22,16 43,-20 9,-8 13,-19 6,11 -6,14 -2,6 24,14 14,9 4,7 38,-8 31,-28 27,-9 34,-1 31,2 12,-12 -68,-45 -3,-8 3,-12 -4,-4 -2,-16 -9,-3 -12,-2 -9,4 -13,-4 -9,-4 -12,5 -9,-4 -29,-10 -10,-4 -12,0 -2,11 -6,3 -9.5,-1 -9.5,-15 -8,-14 -15,-12 -14,-5 -7.5,-13.5 -1,-14.5 -3,-10 -10,-3 -8.5,-2 -8,7 -8,-12 -5,-7 0,-9 -17,-10 -9,3 -11,-2 z"/>
      <path d="m 924,1631.8622 9.5,-16 8,-3 10.5,-20.5 4.5,0 12,2 6,-7.5 8.5,-29 10,-9.5 2.5,-22.5 1,-19 4.5,-13 c 0,0 -10,-14 -12,-14 -2,0 -14.5,8.5 -14.5,8.5 l -26,0.5 -11,3 -18,4.5 -31,-15 -32,-16.5 -4.5,0.5 -3,10.5 -2.5,10.5 7.5,23.5 7.5,17.5 8.5,16 3.5,14 -3,9.5 -0.5,7.5 14.5,32 7.5,17 6,3 11,-1 10.5,6.5 z"/>
      <path d="m 985,1428.3622 6,-6 3.5,-0.5 6.5,9.5 5.5,10 -0.5,12.5 -9,2.5 -6.5,-11 -4.5,-12 z"/>
      <path d="m 823.5,1395.3622 -4.5,12 0,15.5 3.5,5.5 4.5,1 4.5,-5.5 4,-12 -0.5,-9.5 -1.5,-4 -3,-4 z"/>
      <path d="m 625,149.36218 15,5 22,8 12,9 10,21 18,7 19,15 17,-4 17,-2 11,-15 12,-21 13,-17 9,-30 2,-19 13,-33.999997 -6,-16 5,-27 -3,-12 -5,-12.0000004 8,-15 8,-11.9999996 -2,-22 10,-5 7,-9 -13,-12 22,-34.000003 8,-34 3,-9 11,-6 10,-10 5,2 -1,7 12,10 1,43 6,7.000003 8,5 -8,14 17,20 0,8 5,15 -3,35.9999996 7,25.0000004 4,18 12,6 13,-12 16,-3 4,17 21,18 10,8 -1,28.999997 5,24 -1,15 -2,14 23,48 7,13 -1,22 -7,16 13,5 -3,24 -1,10 14,17 21,14 21,2 4,12 4,14 23,4 10,21 9,-7 16,15 -5,12 11,24 11,25 4,38 0,20 14,3 4,4 2,-22 9,6 22,24 9,16 -5,32 24,33 14,3 9,14 3,17 18,13 4,13 5,13 8,7 -1,17 8,14 -2,7 -6,9 1,39 -1,10 -8,-1 5,13 9,20 -2,25 -24,2 -20,-8 -30,16 -2,15 -12,-1 -5,-1 -9,11 -5,1 2,-10 -7,-8 -5,-7 -13,-5 -13,0 -6,-10 -24,4 -15,-8 -14,5 -14,14 -157,-15 -86,-10 -117,-8 -11,-1 11,-160 -142,-7 z"/>
      <path d="m 682.5,156.86218 6.5,1 8,-2.5 11,-5.5 5.5,-1 1.5,-5.5 -2,-4.5 -15,-2.5 -8,2.5 -6.5,5 -4,5.5 -0.5,5.5 z"/>
      <path d="m 1329,683.36218 3,14 7,2 9,-13 4,-18 -11,-8 -7,5 z"/>
      <path d="m 700.5,1306.8622 -14,-2 -10.5,-12 -19,-34.5 -4,-13 4,-10 -5,-22 -3.5,-21.5 -13.5,-12 -14.5,-12 -11,1.5 -6.5,2 -13,-1.5 1,-6.5 12.5,-21 2.5,-11 -0.5,-11 -16.5,-26 -3.5,10 -11,37.5 -8.5,4 -23.5,0 -5,-11.5 5.5,-4 12.5,-0.5 2,-8 3,-26 5.5,-20 14,-12 3.5,-6 -0.5,-16 6.5,-3.5 2,-2.5 -11.5,-32 -4.5,1 -1,18 -7,7.5 -12.5,21.5 -6,12 -12,2 -18,12.5 -13.5,19.5 -11.5,18.5 -11.5,8.5 -11,-4.5 -11.5,-38.5 -0.5,-10 -14,-13.5 -9.5,-21.5 -12.5,-4.5 -9,-9 -4,-7.5 6,-11 -10,-5.50002 -5,-7.5 -6.5,-10.5 -9.5,-4.5 -15.5,5 -8,-6 -10.5,-5.5 -10.5,-2 -5,4 -8,0 -12,-8.5 -18,-11 -15.5,-7.5 -5.5,-1 -4.5,1 -7.5,4 -23.5,0.5 -58,4 -12.5,-297 181,-3.5 142.5,0.5 146.5,6 100,4 -37.5,644.00002 z"/>
      <path d="m 527,1164.3622 -1,11 8,6 10,0 28,-2 10,-10 -10,-11 -10,0 z"/>
    </g>
  </g>

  <g><circle cx="876.8" cy="78.3" r="4.86" fill="#FBC707" fill-opacity="0.476"/><circle cx="1481.7" cy="784.2" r="11.22" fill="#FBC707" fill-opacity="0.560"/><circle cx="1420.9" cy="859.6" r="11.43" fill="#FBC707" fill-opacity="0.553"/><circle cx="1223.4" cy="1151.0" r="5.98" fill="#FBC707" fill-opacity="0.472"/><circle cx="1390.2" cy="405.5" r="7.01" fill="#FBC707" fill-opacity="0.496"/><circle cx="1325.9" cy="323.4" r="7.26" fill="#FBC707" fill-opacity="0.508"/><circle cx="1285.2" cy="1163.5" r="8.48" fill="#FBC707" fill-opacity="0.506"/><circle cx="1496.2" cy="574.8" r="11.08" fill="#FBC707" fill-opacity="0.565"/><circle cx="1454.8" cy="501.3" r="7.78" fill="#FBC707" fill-opacity="0.508"/><circle cx="462.4" cy="394.0" r="4.41" fill="#FBC707" fill-opacity="0.466"/><circle cx="395.3" cy="779.5" r="8.99" fill="#FBC707" fill-opacity="0.553"/><circle cx="1305.3" cy="1100.1" r="8.34" fill="#FBC707" fill-opacity="0.505"/><circle cx="1257.3" cy="1187.0" r="5.26" fill="#FBC707" fill-opacity="0.488"/><circle cx="1223.0" cy="919.0" r="9.11" fill="#FBC707" fill-opacity="0.552"/><circle cx="1226.6" cy="1001.1" r="9.18" fill="#FBC707" fill-opacity="0.552"/><circle cx="1518.7" cy="578.0" r="9.87" fill="#FBC707" fill-opacity="0.567"/><circle cx="1308.1" cy="933.4" r="10.32" fill="#FBC707" fill-opacity="0.554"/><circle cx="1168.0" cy="1002.7" r="6.70" fill="#FBC707" fill-opacity="0.518"/><circle cx="1466.1" cy="541.9" r="9.74" fill="#FBC707" fill-opacity="0.540"/><circle cx="1057.6" cy="866.3" r="7.23" fill="#FBC707" fill-opacity="0.522"/><circle cx="1506.2" cy="667.4" r="8.00" fill="#FBC707" fill-opacity="0.540"/><circle cx="413.8" cy="849.7" r="6.86" fill="#FBC707" fill-opacity="0.504"/><circle cx="1300.6" cy="1134.7" r="7.56" fill="#FBC707" fill-opacity="0.511"/><circle cx="1081.8" cy="908.6" r="6.02" fill="#FBC707" fill-opacity="0.486"/><circle cx="1461.7" cy="818.7" r="11.89" fill="#FBC707" fill-opacity="0.569"/><circle cx="1404.5" cy="421.8" r="5.27" fill="#FBC707" fill-opacity="0.488"/><circle cx="1493.6" cy="746.0" r="10.59" fill="#FBC707" fill-opacity="0.537"/><circle cx="1039.8" cy="893.6" r="7.51" fill="#FBC707" fill-opacity="0.493"/><circle cx="1259.2" cy="182.4" r="5.73" fill="#FBC707" fill-opacity="0.473"/><circle cx="1364.5" cy="373.6" r="6.05" fill="#FBC707" fill-opacity="0.493"/><circle cx="1356.4" cy="992.3" r="9.57" fill="#FBC707" fill-opacity="0.522"/><circle cx="317.4" cy="622.3" r="5.09" fill="#FBC707" fill-opacity="0.479"/><circle cx="1513.1" cy="601.1" r="10.36" fill="#FBC707" fill-opacity="0.570"/><circle cx="1377.7" cy="935.6" r="6.29" fill="#FBC707" fill-opacity="0.507"/><circle cx="1508.8" cy="707.4" r="6.63" fill="#FBC707" fill-opacity="0.509"/><circle cx="1047.6" cy="814.9" r="7.49" fill="#FBC707" fill-opacity="0.502"/><circle cx="346.4" cy="686.3" r="7.63" fill="#FBC707" fill-opacity="0.533"/><circle cx="1003.4" cy="840.0" r="4.74" fill="#FBC707" fill-opacity="0.477"/><circle cx="1205.1" cy="1006.0" r="7.98" fill="#FBC707" fill-opacity="0.540"/><circle cx="376.2" cy="731.2" r="9.68" fill="#FBC707" fill-opacity="0.560"/><circle cx="839.8" cy="102.7" r="7.22" fill="#FBC707" fill-opacity="0.493"/><circle cx="1419.0" cy="481.0" r="6.80" fill="#FBC707" fill-opacity="0.494"/><circle cx="1099.8" cy="970.9" r="5.50" fill="#FBC707" fill-opacity="0.477"/><circle cx="1506.3" cy="629.0" r="8.89" fill="#FBC707" fill-opacity="0.563"/><circle cx="1308.9" cy="228.6" r="6.87" fill="#FBC707" fill-opacity="0.500"/><circle cx="522.9" cy="876.0" r="4.03" fill="#FBC707" fill-opacity="0.458"/><circle cx="1263.6" cy="1021.2" r="8.83" fill="#FBC707" fill-opacity="0.547"/><circle cx="409.5" cy="807.6" r="7.77" fill="#FBC707" fill-opacity="0.534"/><circle cx="1110.6" cy="286.0" r="3.96" fill="#FBC707" fill-opacity="0.447"/><circle cx="1026.3" cy="872.3" r="6.25" fill="#FBC707" fill-opacity="0.497"/><circle cx="1368.9" cy="962.3" r="7.32" fill="#FBC707" fill-opacity="0.516"/><circle cx="1299.1" cy="999.7" r="11.16" fill="#FBC707" fill-opacity="0.552"/><circle cx="1324.4" cy="296.5" r="7.00" fill="#FBC707" fill-opacity="0.503"/><circle cx="862.3" cy="103.4" r="7.04" fill="#FBC707" fill-opacity="0.489"/><circle cx="1119.1" cy="983.9" r="5.99" fill="#FBC707" fill-opacity="0.488"/><circle cx="1404.8" cy="892.7" r="9.22" fill="#FBC707" fill-opacity="0.529"/><circle cx="380.2" cy="753.8" r="11.65" fill="#FBC707" fill-opacity="0.561"/><circle cx="1333.2" cy="994.9" r="8.01" fill="#FBC707" fill-opacity="0.537"/><circle cx="1288.6" cy="193.3" r="5.11" fill="#FBC707" fill-opacity="0.483"/><circle cx="1442.4" cy="837.8" r="10.00" fill="#FBC707" fill-opacity="0.566"/><circle cx="1442.9" cy="707.1" r="6.92" fill="#FBC707" fill-opacity="0.516"/><circle cx="547.6" cy="330.0" r="4.20" fill="#FBC707" fill-opacity="0.459"/><circle cx="1417.4" cy="456.7" r="7.02" fill="#FBC707" fill-opacity="0.498"/><circle cx="1485.3" cy="689.3" r="8.88" fill="#FBC707" fill-opacity="0.521"/><circle cx="1311.5" cy="252.9" r="6.17" fill="#FBC707" fill-opacity="0.504"/><circle cx="940.7" cy="808.3" r="3.78" fill="#FBC707" fill-opacity="0.447"/><circle cx="1190.8" cy="887.8" r="9.19" fill="#FBC707" fill-opacity="0.519"/><circle cx="1141.3" cy="994.2" r="7.77" fill="#FBC707" fill-opacity="0.502"/><circle cx="1035.8" cy="835.9" r="7.19" fill="#FBC707" fill-opacity="0.508"/><circle cx="425.8" cy="895.4" r="5.87" fill="#FBC707" fill-opacity="0.473"/><circle cx="1283.0" cy="925.9" r="11.45" fill="#FBC707" fill-opacity="0.561"/><circle cx="525.9" cy="368.8" r="4.32" fill="#FBC707" fill-opacity="0.459"/><circle cx="361.4" cy="704.1" r="7.98" fill="#FBC707" fill-opacity="0.548"/><circle cx="618.8" cy="247.3" r="5.01" fill="#FBC707" fill-opacity="0.458"/><circle cx="885.2" cy="98.4" r="5.11" fill="#FBC707" fill-opacity="0.478"/><circle cx="601.5" cy="277.7" r="5.12" fill="#FBC707" fill-opacity="0.467"/><circle cx="584.2" cy="290.3" r="4.44" fill="#FBC707" fill-opacity="0.469"/><circle cx="812.2" cy="121.6" r="7.44" fill="#FBC707" fill-opacity="0.491"/><circle cx="781.5" cy="174.8" r="5.62" fill="#FBC707" fill-opacity="0.464"/><circle cx="328.7" cy="653.2" r="6.55" fill="#FBC707" fill-opacity="0.503"/><circle cx="1133.6" cy="852.5" r="6.05" fill="#FBC707" fill-opacity="0.482"/><circle cx="1167.0" cy="870.7" r="7.24" fill="#FBC707" fill-opacity="0.496"/><circle cx="1483.0" cy="556.0" r="9.74" fill="#FBC707" fill-opacity="0.555"/><circle cx="1381.4" cy="697.1" r="6.84" fill="#FBC707" fill-opacity="0.494"/><circle cx="849.5" cy="73.3" r="6.88" fill="#FBC707" fill-opacity="0.482"/><circle cx="1088.9" cy="933.8" r="5.90" fill="#FBC707" fill-opacity="0.469"/><circle cx="1019.1" cy="904.6" r="6.02" fill="#FBC707" fill-opacity="0.472"/><circle cx="316.3" cy="589.9" r="4.39" fill="#FBC707" fill-opacity="0.468"/><circle cx="323.8" cy="496.5" r="3.15" fill="#FBC707" fill-opacity="0.447"/><circle cx="811.6" cy="93.3" r="5.30" fill="#FBC707" fill-opacity="0.488"/><circle cx="1394.8" cy="913.1" r="7.88" fill="#FBC707" fill-opacity="0.513"/><circle cx="825.4" cy="73.9" r="6.67" fill="#FBC707" fill-opacity="0.483"/><circle cx="765.8" cy="774.8" r="4.12" fill="#FBC707" fill-opacity="0.447"/><circle cx="417.4" cy="423.9" r="3.74" fill="#FBC707" fill-opacity="0.454"/><circle cx="1453.5" cy="524.7" r="9.07" fill="#FBC707" fill-opacity="0.523"/><circle cx="493.2" cy="389.6" r="5.08" fill="#FBC707" fill-opacity="0.464"/><circle cx="568.9" cy="266.4" r="5.38" fill="#FBC707" fill-opacity="0.468"/><circle cx="805.0" cy="145.4" r="5.26" fill="#FBC707" fill-opacity="0.483"/><circle cx="592.8" cy="254.5" r="5.42" fill="#FBC707" fill-opacity="0.465"/><circle cx="1199.2" cy="113.2" r="3.94" fill="#FBC707" fill-opacity="0.447"/><circle cx="1330.0" cy="346.6" r="7.78" fill="#FBC707" fill-opacity="0.505"/><circle cx="446.7" cy="906.0" r="5.68" fill="#FBC707" fill-opacity="0.468"/><circle cx="548.3" cy="295.8" r="5.58" fill="#FBC707" fill-opacity="0.466"/><circle cx="1182.2" cy="227.1" r="4.24" fill="#FBC707" fill-opacity="0.456"/><circle cx="700.0" cy="160.4" r="4.49" fill="#FBC707" fill-opacity="0.447"/><circle cx="653.1" cy="187.2" r="3.91" fill="#FBC707" fill-opacity="0.447"/><circle cx="397.0" cy="872.6" r="7.41" fill="#FBC707" fill-opacity="0.490"/><circle cx="492.0" cy="899.1" r="4.43" fill="#FBC707" fill-opacity="0.462"/><circle cx="918.8" cy="88.6" r="4.15" fill="#FBC707" fill-opacity="0.460"/><circle cx="1146.0" cy="295.2" r="3.40" fill="#FBC707" fill-opacity="0.447"/><circle cx="555.5" cy="855.0" r="4.22" fill="#FBC707" fill-opacity="0.454"/><circle cx="762.4" cy="192.3" r="4.31" fill="#FBC707" fill-opacity="0.453"/><circle cx="391.0" cy="733.6" r="13.83" fill="#FBC707" fill-opacity="0.561"/><circle cx="399.0" cy="748.8" r="8.11" fill="#FBC707" fill-opacity="0.561"/><circle cx="415.4" cy="802.0" r="8.88" fill="#FBC707" fill-opacity="0.537"/><circle cx="407.6" cy="764.9" r="6.21" fill="#FBC707" fill-opacity="0.555"/><circle cx="402.8" cy="784.6" r="6.79" fill="#FBC707" fill-opacity="0.549"/><circle cx="356.9" cy="684.6" r="10.71" fill="#FBC707" fill-opacity="0.535"/><circle cx="381.2" cy="720.0" r="9.06" fill="#FBC707" fill-opacity="0.558"/><circle cx="367.7" cy="679.7" r="7.21" fill="#FBC707" fill-opacity="0.538"/><circle cx="408.4" cy="790.9" r="13.15" fill="#FBC707" fill-opacity="0.544"/><circle cx="421.6" cy="796.3" r="12.03" fill="#FBC707" fill-opacity="0.539"/><circle cx="422.9" cy="813.8" r="8.58" fill="#FBC707" fill-opacity="0.529"/><circle cx="380.4" cy="739.3" r="9.30" fill="#FBC707" fill-opacity="0.561"/><circle cx="392.5" cy="762.2" r="13.87" fill="#FBC707" fill-opacity="0.559"/><circle cx="367.6" cy="689.6" r="6.95" fill="#FBC707" fill-opacity="0.543"/><circle cx="390.9" cy="709.0" r="12.63" fill="#FBC707" fill-opacity="0.557"/><circle cx="373.0" cy="700.2" r="6.48" fill="#FBC707" fill-opacity="0.550"/><circle cx="1495.1" cy="643.8" r="8.65" fill="#FBC707" fill-opacity="0.555"/><circle cx="1486.7" cy="642.7" r="9.56" fill="#FBC707" fill-opacity="0.555"/><circle cx="1499.6" cy="673.8" r="5.37" fill="#FBC707" fill-opacity="0.537"/><circle cx="1501.2" cy="606.1" r="10.70" fill="#FBC707" fill-opacity="0.569"/><circle cx="1505.5" cy="595.7" r="7.84" fill="#FBC707" fill-opacity="0.570"/><circle cx="1515.6" cy="593.0" r="10.44" fill="#FBC707" fill-opacity="0.567"/><circle cx="1505.8" cy="641.3" r="7.94" fill="#FBC707" fill-opacity="0.557"/><circle cx="1470.0" cy="554.6" r="7.56" fill="#FBC707" fill-opacity="0.548"/><circle cx="1523.8" cy="587.7" r="10.70" fill="#FBC707" fill-opacity="0.568"/><circle cx="1487.1" cy="570.3" r="9.76" fill="#FBC707" fill-opacity="0.562"/><circle cx="1487.9" cy="581.1" r="10.83" fill="#FBC707" fill-opacity="0.565"/><circle cx="1492.4" cy="621.6" r="6.28" fill="#FBC707" fill-opacity="0.566"/><circle cx="1497.7" cy="597.1" r="10.73" fill="#FBC707" fill-opacity="0.570"/><circle cx="1509.4" cy="619.4" r="11.14" fill="#FBC707" fill-opacity="0.566"/><circle cx="1490.9" cy="604.3" r="9.81" fill="#FBC707" fill-opacity="0.569"/><circle cx="1471.4" cy="577.0" r="8.20" fill="#FBC707" fill-opacity="0.560"/><circle cx="1455.3" cy="813.8" r="8.26" fill="#FBC707" fill-opacity="0.569"/><circle cx="1425.1" cy="841.9" r="5.38" fill="#FBC707" fill-opacity="0.561"/><circle cx="1411.7" cy="854.3" r="9.08" fill="#FBC707" fill-opacity="0.553"/><circle cx="1464.4" cy="793.9" r="13.52" fill="#FBC707" fill-opacity="0.566"/><circle cx="1474.6" cy="777.4" r="11.88" fill="#FBC707" fill-opacity="0.558"/><circle cx="1485.7" cy="756.1" r="5.95" fill="#FBC707" fill-opacity="0.545"/><circle cx="1474.8" cy="753.1" r="8.24" fill="#FBC707" fill-opacity="0.545"/><circle cx="1403.5" cy="849.6" r="9.69" fill="#FBC707" fill-opacity="0.553"/><circle cx="1471.0" cy="797.8" r="8.28" fill="#FBC707" fill-opacity="0.566"/><circle cx="1466.2" cy="810.9" r="6.45" fill="#FBC707" fill-opacity="0.569"/><circle cx="1471.9" cy="760.5" r="7.93" fill="#FBC707" fill-opacity="0.550"/><circle cx="1473.7" cy="768.5" r="7.50" fill="#FBC707" fill-opacity="0.554"/><circle cx="1459.3" cy="806.9" r="5.46" fill="#FBC707" fill-opacity="0.569"/><circle cx="1449.8" cy="820.7" r="12.89" fill="#FBC707" fill-opacity="0.569"/><circle cx="1457.2" cy="826.4" r="11.08" fill="#FBC707" fill-opacity="0.569"/><circle cx="1438.2" cy="826.0" r="7.23" fill="#FBC707" fill-opacity="0.567"/><circle cx="1211.0" cy="918.7" r="10.38" fill="#FBC707" fill-opacity="0.550"/><circle cx="1294.8" cy="992.3" r="10.56" fill="#FBC707" fill-opacity="0.552"/><circle cx="1240.9" cy="1003.1" r="10.18" fill="#FBC707" fill-opacity="0.550"/><circle cx="1265.0" cy="1003.8" r="5.57" fill="#FBC707" fill-opacity="0.548"/><circle cx="1286.8" cy="936.6" r="10.97" fill="#FBC707" fill-opacity="0.562"/><circle cx="1284.2" cy="991.2" r="9.95" fill="#FBC707" fill-opacity="0.553"/><circle cx="1241.2" cy="900.4" r="9.81" fill="#FBC707" fill-opacity="0.554"/><circle cx="1235.3" cy="910.8" r="10.94" fill="#FBC707" fill-opacity="0.554"/><circle cx="1213.9" cy="993.6" r="7.57" fill="#FBC707" fill-opacity="0.548"/><circle cx="1321.1" cy="930.2" r="6.75" fill="#FBC707" fill-opacity="0.548"/><circle cx="1319.1" cy="985.5" r="12.57" fill="#FBC707" fill-opacity="0.544"/><circle cx="1284.2" cy="916.9" r="13.25" fill="#FBC707" fill-opacity="0.561"/><circle cx="1289.3" cy="999.9" r="11.51" fill="#FBC707" fill-opacity="0.553"/><circle cx="1254.6" cy="1006.1" r="6.39" fill="#FBC707" fill-opacity="0.547"/><circle cx="1310.6" cy="990.9" r="6.60" fill="#FBC707" fill-opacity="0.549"/><circle cx="1335.9" cy="937.8" r="8.49" fill="#FBC707" fill-opacity="0.550"/></g>
  <g opacity="0.78"><circle cx="1471.2" cy="592.0" r="46" fill="url(#haloY)"/>
  <g transform="translate(1471.2,592.0)" fill="none" stroke="#5DA9F5">
    <circle r="30" stroke-width="1.6" opacity=".38"/>
    <circle r="46" stroke-width="1.3" opacity=".20"/>
    <circle r="64" stroke-width="1.1" opacity=".10"/>
  </g><circle cx="1424.0" cy="813.3" r="46" fill="url(#haloY)"/>
  <g transform="translate(1424.0,813.3)" fill="none" stroke="#5DA9F5">
    <circle r="30" stroke-width="1.6" opacity=".38"/>
    <circle r="46" stroke-width="1.3" opacity=".20"/>
    <circle r="64" stroke-width="1.1" opacity=".10"/>
  </g><circle cx="403.7" cy="745.3" r="46" fill="url(#haloY)"/>
  <g transform="translate(403.7,745.3)" fill="none" stroke="#5DA9F5">
    <circle r="30" stroke-width="1.6" opacity=".38"/>
    <circle r="46" stroke-width="1.3" opacity=".20"/>
    <circle r="64" stroke-width="1.1" opacity=".10"/>
  </g>
  <g transform="translate(1471.2,592.0)">
    <circle r="9" fill="#5DA9F5" opacity=".18"><animate attributeName="r" values="9;34" dur="3s" repeatCount="indefinite"/><animate attributeName="opacity" values=".35;0" dur="3s" repeatCount="indefinite"/></circle>
    <circle r="9" fill="#5DA9F5" opacity=".18"><animate attributeName="r" values="9;34" dur="3s" begin="1.5s" repeatCount="indefinite"/><animate attributeName="opacity" values=".35;0" dur="3s" begin="1.5s" repeatCount="indefinite"/></circle>
    <circle r="17" fill="#0A1424" stroke="#5DA9F5" stroke-width="2.6"/>
    <path d="M-9.75,-1.95 L0,-9.1 L9.75,-1.95" fill="none" stroke="#5DA9F5" stroke-width="2.6" stroke-linejoin="round"/>
    <path d="M-7.8,-1.3 L-7.8,9.1 L7.8,9.1 L7.8,-1.3" fill="none" stroke="#5DA9F5" stroke-width="2.6" stroke-linejoin="round"/>
    <rect x="-3.12" y="2.6" width="6.24" height="6.5" fill="#5DA9F5"/>
  </g>
  <g transform="translate(1424.0,813.3)">
    <circle r="9" fill="#5DA9F5" opacity=".18"><animate attributeName="r" values="9;34" dur="3s" repeatCount="indefinite"/><animate attributeName="opacity" values=".35;0" dur="3s" repeatCount="indefinite"/></circle>
    <circle r="9" fill="#5DA9F5" opacity=".18"><animate attributeName="r" values="9;34" dur="3s" begin="1.5s" repeatCount="indefinite"/><animate attributeName="opacity" values=".35;0" dur="3s" begin="1.5s" repeatCount="indefinite"/></circle>
    <circle r="17" fill="#0A1424" stroke="#5DA9F5" stroke-width="2.6"/>
    <path d="M-9.75,-1.95 L0,-9.1 L9.75,-1.95" fill="none" stroke="#5DA9F5" stroke-width="2.6" stroke-linejoin="round"/>
    <path d="M-7.8,-1.3 L-7.8,9.1 L7.8,9.1 L7.8,-1.3" fill="none" stroke="#5DA9F5" stroke-width="2.6" stroke-linejoin="round"/>
    <rect x="-3.12" y="2.6" width="6.24" height="6.5" fill="#5DA9F5"/>
  </g>
  <g transform="translate(403.7,745.3)">
    <circle r="9" fill="#5DA9F5" opacity=".18"><animate attributeName="r" values="9;34" dur="3s" repeatCount="indefinite"/><animate attributeName="opacity" values=".35;0" dur="3s" repeatCount="indefinite"/></circle>
    <circle r="9" fill="#5DA9F5" opacity=".18"><animate attributeName="r" values="9;34" dur="3s" begin="1.5s" repeatCount="indefinite"/><animate attributeName="opacity" values=".35;0" dur="3s" begin="1.5s" repeatCount="indefinite"/></circle>
    <circle r="17" fill="#0A1424" stroke="#5DA9F5" stroke-width="2.6"/>
    <path d="M-9.75,-1.95 L0,-9.1 L9.75,-1.95" fill="none" stroke="#5DA9F5" stroke-width="2.6" stroke-linejoin="round"/>
    <path d="M-7.8,-1.3 L-7.8,9.1 L7.8,9.1 L7.8,-1.3" fill="none" stroke="#5DA9F5" stroke-width="2.6" stroke-linejoin="round"/>
    <rect x="-3.12" y="2.6" width="6.24" height="6.5" fill="#5DA9F5"/>
  </g></g>
  
  
</svg>
